<svg width="8" height="8" viewBox="0 0 8 8" fill="none" xmlns="http://www.w3.org/2000/svg">
<path d="M7.08956 1.50871C7.37052 1.20434 7.35154 0.72985 7.04717 0.448897C6.74281 0.167945 6.26831 0.186924 5.98736 0.49129L7.08956 1.50871ZM0.448897 6.49129C0.167945 6.79566 0.186924 7.27015 0.49129 7.5511C0.795656 7.83206 1.27015 7.81308 1.5511 7.50871L0.448897 6.49129ZM6.48966 7.5496C6.79319 7.83145 7.26774 7.81387 7.5496 7.51034C7.83145 7.20681 7.81387 6.73226 7.51034 6.4504L6.48966 7.5496ZM1.5511 0.49129C1.27015 0.186924 0.795655 0.167945 0.49129 0.448897C0.186924 0.72985 0.167945 1.20434 0.448897 1.50871L1.5511 0.49129ZM5.98736 0.49129C5.44663 1.07708 5.02469 1.53418 4.60274 1.99129C4.1808 2.4484 3.75885 2.9055 3.21813 3.49129L4.32033 4.50871C4.86106 3.92292 5.283 3.46582 5.70495 3.00871C6.12689 2.5516 6.54884 2.0945 7.08956 1.50871L5.98736 0.49129ZM3.21813 3.49129C2.13668 4.66286 1.53035 5.31972 0.448897 6.49129L1.5511 7.50871C2.63255 6.33714 3.23888 5.68028 4.32033 4.50871L3.21813 3.49129ZM3.25889 4.54959C3.2607 4.55127 3.2625 4.55294 3.26431 4.55462C3.26611 4.5563 3.26792 4.55798 3.26973 4.55966C3.27154 4.56134 3.27335 4.56302 3.27517 4.56471C3.27698 4.56639 3.27879 4.56808 3.28061 4.56976C3.28243 4.57145 3.28425 4.57314 3.28607 4.57483C3.28789 4.57652 3.28971 4.57821 3.29153 4.5799C3.29336 4.5816 3.29518 4.58329 3.29701 4.58499C3.29884 4.58669 3.30067 4.58838 3.3025 4.59008C3.30433 4.59178 3.30616 4.59349 3.30799 4.59519C3.30983 4.59689 3.31166 4.5986 3.3135 4.6003C3.31534 4.60201 3.31718 4.60372 3.31902 4.60543C3.32086 4.60713 3.3227 4.60885 3.32454 4.61056C3.32639 4.61227 3.32823 4.61398 3.33008 4.6157C3.33193 4.61742 3.33378 4.61913 3.33563 4.62085C3.33748 4.62257 3.33933 4.62429 3.34119 4.62601C3.34304 4.62773 3.3449 4.62946 3.34675 4.63118C3.34861 4.63291 3.35047 4.63463 3.35233 4.63636C3.35419 4.63809 3.35606 4.63982 3.35792 4.64155C3.35978 4.64328 3.36165 4.64501 3.36352 4.64675C3.36538 4.64848 3.36725 4.65022 3.36912 4.65195C3.37099 4.65369 3.37287 4.65543 3.37474 4.65717C3.37661 4.65891 3.37849 4.66065 3.38037 4.66239C3.38224 4.66413 3.38412 4.66588 3.386 4.66763C3.38788 4.66937 3.38976 4.67112 3.39165 4.67287C3.39353 4.67462 3.39542 4.67637 3.3973 4.67812C3.39919 4.67987 3.40108 4.68162 3.40297 4.68338C3.40486 4.68513 3.40675 4.68689 3.40864 4.68865C3.41053 4.69041 3.41243 4.69216 3.41432 4.69392C3.41622 4.69569 3.41812 4.69745 3.42002 4.69921C3.42192 4.70097 3.42382 4.70274 3.42572 4.70451C3.42762 4.70627 3.42953 4.70804 3.43143 4.70981C3.43334 4.71158 3.43524 4.71335 3.43715 4.71512C3.43906 4.71689 3.44097 4.71867 3.44288 4.72044C3.44479 4.72222 3.44671 4.72399 3.44862 4.72577C3.45054 4.72755 3.45245 4.72933 3.45437 4.73111C3.45629 4.73289 3.45821 4.73467 3.46013 4.73646C3.46205 4.73824 3.46397 4.74003 3.4659 4.74181C3.46782 4.7436 3.46974 4.74539 3.47167 4.74717C3.4736 4.74896 3.47553 4.75075 3.47746 4.75255C3.47939 4.75434 3.48132 4.75613 3.48325 4.75793C3.48518 4.75972 3.48712 4.76152 3.48905 4.76331C3.49099 4.76511 3.49292 4.76691 3.49486 4.76871C3.4968 4.77051 3.49874 4.77231 3.50068 4.77412C3.50263 4.77592 3.50457 4.77772 3.50651 4.77953C3.50846 4.78133 3.5104 4.78314 3.51235 4.78495C3.5143 4.78676 3.51625 4.78857 3.5182 4.79038C3.52015 4.79219 3.5221 4.794 3.52405 4.79582C3.52601 4.79763 3.52796 4.79944 3.52992 4.80126C3.53187 4.80308 3.53383 4.80489 3.53579 4.80671C3.53775 4.80853 3.53971 4.81035 3.54167 4.81217C3.54363 4.814 3.5456 4.81582 3.54756 4.81764C3.54952 4.81947 3.55149 4.82129 3.55346 4.82312C3.55543 4.82495 3.55739 4.82677 3.55936 4.8286C3.56133 4.83043 3.56331 4.83226 3.56528 4.8341C3.56725 4.83593 3.56923 4.83776 3.5712 4.8396C3.57318 4.84143 3.57515 4.84327 3.57713 4.8451C3.57911 4.84694 3.58109 4.84878 3.58307 4.85062C3.58505 4.85246 3.58704 4.8543 3.58902 4.85614C3.591 4.85798 3.59299 4.85983 3.59498 4.86167C3.59696 4.86352 3.59895 4.86536 3.60094 4.86721C3.60293 4.86906 3.60492 4.87091 3.60691 4.87276C3.60891 4.87461 3.6109 4.87646 3.61289 4.87831C3.61489 4.88016 3.61688 4.88202 3.61888 4.88387C3.62088 4.88573 3.62288 4.88758 3.62488 4.88944C3.62688 4.8913 3.62888 4.89315 3.63088 4.89501C3.63288 4.89687 3.63489 4.89873 3.63689 4.9006C3.6389 4.90246 3.64091 4.90432 3.64291 4.90619C3.64492 4.90805 3.64693 4.90992 3.64894 4.91178C3.65095 4.91365 3.65296 4.91552 3.65498 4.91739C3.65699 4.91926 3.659 4.92113 3.66102 4.923C3.66304 4.92487 3.66505 4.92674 3.66707 4.92862C3.66909 4.93049 3.67111 4.93237 3.67313 4.93424C3.67515 4.93612 3.67717 4.938 3.6792 4.93988C3.68122 4.94176 3.68324 4.94364 3.68527 4.94552C3.6873 4.9474 3.68932 4.94928 3.69135 4.95116C3.69338 4.95305 3.69541 4.95493 3.69744 4.95682C3.69947 4.9587 3.7015 4.96059 3.70354 4.96248C3.70557 4.96437 3.7076 4.96625 3.70964 4.96815C3.71167 4.97004 3.71371 4.97193 3.71575 4.97382C3.71779 4.97571 3.71983 4.97761 3.72187 4.9795C3.72391 4.9814 3.72595 4.98329 3.72799 4.98519C3.73004 4.98709 3.73208 4.98898 3.73413 4.99088C3.73617 4.99278 3.73822 4.99468 3.74027 4.99658C3.74231 4.99849 3.74436 5.00039 3.74641 5.00229C3.74846 5.0042 3.75051 5.0061 3.75257 5.00801C3.75462 5.00991 3.75667 5.01182 3.75873 5.01373C3.76078 5.01564 3.76284 5.01754 3.7649 5.01945C3.76695 5.02136 3.76901 5.02328 3.77107 5.02519C3.77313 5.0271 3.77519 5.02901 3.77725 5.03093C3.77931 5.03284 3.78138 5.03476 3.78344 5.03668C3.78551 5.03859 3.78757 5.04051 3.78964 5.04243C3.7917 5.04435 3.79377 5.04627 3.79584 5.04819C3.79791 5.05011 3.79998 5.05203 3.80205 5.05395C3.80412 5.05588 3.80619 5.0578 3.80826 5.05973C3.81034 5.06165 3.81241 5.06358 3.81449 5.0655C3.81656 5.06743 3.81864 5.06936 3.82072 5.07129C3.82279 5.07322 3.82487 5.07515 3.82695 5.07708C3.82903 5.07901 3.83111 5.08094 3.83319 5.08288C3.83528 5.08481 3.83736 5.08674 3.83944 5.08868C3.84153 5.09061 3.84361 5.09255 3.8457 5.09449C3.84779 5.09642 3.84987 5.09836 3.85196 5.1003C3.85405 5.10224 3.85614 5.10418 3.85823 5.10612C3.86032 5.10806 3.86241 5.11001 3.8645 5.11195C3.8666 5.11389 3.86869 5.11584 3.87079 5.11778C3.87288 5.11973 3.87498 5.12167 3.87707 5.12362C3.87917 5.12557 3.88127 5.12751 3.88337 5.12946C3.88546 5.13141 3.88756 5.13336 3.88967 5.13531C3.89177 5.13726 3.89387 5.13922 3.89597 5.14117C3.89807 5.14312 3.90018 5.14507 3.90228 5.14703C3.90439 5.14898 3.90649 5.15094 3.9086 5.1529C3.91071 5.15485 3.91282 5.15681 3.91493 5.15877C3.91703 5.16073 3.91914 5.16269 3.92126 5.16465C3.92337 5.16661 3.92548 5.16857 3.92759 5.17053C3.9297 5.17249 3.93182 5.17445 3.93393 5.17642C3.93605 5.17838 3.93816 5.18035 3.94028 5.18231C3.9424 5.18428 3.94452 5.18625 3.94663 5.18821C3.94875 5.19018 3.95087 5.19215 3.95299 5.19412C3.95511 5.19609 3.95724 5.19806 3.95936 5.20003C3.96148 5.202 3.9636 5.20397 3.96573 5.20594C3.96785 5.20792 3.96998 5.20989 3.97211 5.21186C3.97423 5.21384 3.97636 5.21581 3.97849 5.21779C3.98062 5.21977 3.98275 5.22174 3.98488 5.22372C3.98701 5.2257 3.98914 5.22768 3.99127 5.22966C3.9934 5.23164 3.99553 5.23362 3.99767 5.2356C3.9998 5.23758 4.00194 5.23956 4.00407 5.24155C4.00621 5.24353 4.00834 5.24551 4.01048 5.2475C4.01262 5.24948 4.01476 5.25147 4.0169 5.25345C4.01903 5.25544 4.02117 5.25743 4.02332 5.25942C4.02546 5.2614 4.0276 5.26339 4.02974 5.26538C4.03188 5.26737 4.03403 5.26936 4.03617 5.27135C4.03832 5.27335 4.04046 5.27534 4.04261 5.27733C4.04475 5.27932 4.0469 5.28132 4.04905 5.28331C4.0512 5.28531 4.05335 5.2873 4.05549 5.2893C4.05764 5.29129 4.05979 5.29329 4.06195 5.29529C4.0641 5.29728 4.06625 5.29928 4.0684 5.30128C4.07055 5.30328 4.07271 5.30528 4.07486 5.30728C4.07702 5.30928 4.07917 5.31128 4.08133 5.31329C4.08349 5.31529 4.08564 5.31729 4.0878 5.3193C4.08996 5.3213 4.09212 5.3233 4.09428 5.32531C4.09644 5.32731 4.0986 5.32932 4.10076 5.33133C4.10292 5.33333 4.10508 5.33534 4.10724 5.33735C4.10941 5.33936 4.11157 5.34137 4.11373 5.34338C4.1159 5.34539 4.11806 5.3474 4.12023 5.34941C4.12239 5.35142 4.12456 5.35343 4.12673 5.35544C4.1289 5.35745 4.13106 5.35947 4.13323 5.36148C4.1354 5.3635 4.13757 5.36551 4.13974 5.36753C4.14191 5.36954 4.14408 5.37156 4.14625 5.37357C4.14843 5.37559 4.1506 5.37761 4.15277 5.37963C4.15495 5.38164 4.15712 5.38366 4.15929 5.38568C4.16147 5.3877 4.16365 5.38972 4.16582 5.39174C4.168 5.39376 4.17017 5.39579 4.17235 5.39781C4.17453 5.39983 4.17671 5.40185 4.17889 5.40388C4.18107 5.4059 4.18325 5.40792 4.18543 5.40995C4.18761 5.41197 4.18979 5.414 4.19197 5.41603C4.19415 5.41805 4.19634 5.42008 4.19852 5.42211C4.2007 5.42413 4.20289 5.42616 4.20507 5.42819C4.20726 5.43022 4.20944 5.43225 4.21163 5.43428C4.21382 5.43631 4.216 5.43834 4.21819 5.44037C4.22038 5.4424 4.22257 5.44443 4.22475 5.44647C4.22694 5.4485 4.22913 5.45053 4.23132 5.45257C4.23351 5.4546 4.2357 5.45663 4.2379 5.45867C4.24009 5.4607 4.24228 5.46274 4.24447 5.46478C4.24667 5.46681 4.24886 5.46885 4.25105 5.47089C4.25325 5.47292 4.25544 5.47496 4.25764 5.477C4.25983 5.47904 4.26203 5.48108 4.26423 5.48312C4.26642 5.48516 4.26862 5.4872 4.27082 5.48924C4.27302 5.49128 4.27521 5.49332 4.27741 5.49536C4.27961 5.49741 4.28181 5.49945 4.28401 5.50149C4.28621 5.50353 4.28841 5.50558 4.29061 5.50762C4.29282 5.50967 4.29502 5.51171 4.29722 5.51376C4.29942 5.5158 4.30163 5.51785 4.30383 5.5199C4.30604 5.52194 4.30824 5.52399 4.31044 5.52604C4.31265 5.52808 4.31486 5.53013 4.31706 5.53218C4.31927 5.53423 4.32147 5.53628 4.32368 5.53833C4.32589 5.54038 4.3281 5.54243 4.33031 5.54448C4.33251 5.54653 4.33472 5.54858 4.33693 5.55063C4.33914 5.55268 4.34135 5.55474 4.34356 5.55679C4.34577 5.55884 4.34799 5.5609 4.3502 5.56295C4.35241 5.565 4.35462 5.56706 4.35683 5.56911C4.35905 5.57117 4.36126 5.57322 4.36347 5.57528C4.36569 5.57733 4.3679 5.57939 4.37012 5.58145C4.37233 5.5835 4.37455 5.58556 4.37676 5.58762C4.37898 5.58968 4.3812 5.59173 4.38341 5.59379C4.38563 5.59585 4.38785 5.59791 4.39007 5.59997C4.39228 5.60203 4.3945 5.60409 4.39672 5.60615C4.39894 5.60821 4.40116 5.61027 4.40338 5.61233C4.4056 5.61439 4.40782 5.61646 4.41004 5.61852C4.41226 5.62058 4.41448 5.62264 4.4167 5.62471C4.41893 5.62677 4.42115 5.62883 4.42337 5.6309C4.42559 5.63296 4.42782 5.63502 4.43004 5.63709C4.43226 5.63915 4.43449 5.64122 4.43671 5.64329C4.43894 5.64535 4.44116 5.64742 4.44339 5.64948C4.44561 5.65155 4.44784 5.65362 4.45007 5.65568C4.45229 5.65775 4.45452 5.65982 4.45675 5.66189C4.45897 5.66396 4.4612 5.66602 4.46343 5.66809C4.46566 5.67016 4.46788 5.67223 4.47011 5.6743C4.47234 5.67637 4.47457 5.67844 4.4768 5.68051C4.47903 5.68258 4.48126 5.68465 4.48349 5.68672C4.48572 5.68879 4.48795 5.69087 4.49018 5.69294C4.49242 5.69501 4.49465 5.69708 4.49688 5.69915C4.49911 5.70123 4.50134 5.7033 4.50358 5.70537C4.50581 5.70745 4.50804 5.70952 4.51028 5.71159C4.51251 5.71367 4.51474 5.71574 4.51698 5.71782C4.51921 5.71989 4.52145 5.72197 4.52368 5.72404C4.52592 5.72612 4.52815 5.72819 4.53039 5.73027C4.53262 5.73235 4.53486 5.73442 4.5371 5.7365C4.53933 5.73857 4.54157 5.74065 4.54381 5.74273C4.54604 5.74481 4.54828 5.74688 4.55052 5.74896C4.55276 5.75104 4.55499 5.75312 4.55723 5.7552C4.55947 5.75728 4.56171 5.75935 4.56395 5.76143C4.56619 5.76351 4.56843 5.76559 4.57067 5.76767C4.57291 5.76975 4.57515 5.77183 4.57739 5.77391C4.57963 5.77599 4.58187 5.77807 4.58411 5.78015C4.58635 5.78223 4.58859 5.78431 4.59083 5.7864C4.59307 5.78848 4.59532 5.79056 4.59756 5.79264C4.5998 5.79472 4.60204 5.79681 4.60428 5.79889C4.60653 5.80097 4.60877 5.80305 4.61101 5.80514C4.61326 5.80722 4.6155 5.8093 4.61774 5.81139C4.61999 5.81347 4.62223 5.81555 4.62448 5.81764C4.62672 5.81972 4.62896 5.8218 4.63121 5.82389C4.63345 5.82597 4.6357 5.82806 4.63794 5.83014C4.64019 5.83223 4.64243 5.83431 4.64468 5.8364C4.64693 5.83848 4.64917 5.84057 4.65142 5.84265C4.65366 5.84474 4.65591 5.84683 4.65816 5.84891C4.6604 5.851 4.66265 5.85308 4.6649 5.85517C4.66714 5.85726 4.66939 5.85934 4.67164 5.86143C4.67389 5.86352 4.67613 5.8656 4.67838 5.86769C4.68063 5.86978 4.68288 5.87187 4.68513 5.87395C4.68737 5.87604 4.68962 5.87813 4.69187 5.88022C4.69412 5.88231 4.69637 5.88439 4.69862 5.88648C4.70087 5.88857 4.70311 5.89066 4.70536 5.89275C4.70761 5.89484 4.70986 5.89692 4.71211 5.89901C4.71436 5.9011 4.71661 5.90319 4.71886 5.90528C4.72111 5.90737 4.72336 5.90946 4.72561 5.91155C4.72786 5.91364 4.73011 5.91573 4.73236 5.91782C4.73461 5.91991 4.73686 5.922 4.73912 5.92409C4.74137 5.92618 4.74362 5.92827 4.74587 5.93036C4.74812 5.93245 4.75037 5.93454 4.75262 5.93663C4.75487 5.93872 4.75713 5.94081 4.75938 5.9429C4.76163 5.94499 4.76388 5.94708 4.76613 5.94917C4.76838 5.95127 4.77064 5.95336 4.77289 5.95545C4.77514 5.95754 4.77739 5.95963 4.77964 5.96172C4.7819 5.96381 4.78415 5.9659 4.7864 5.968C4.78865 5.97009 4.79091 5.97218 4.79316 5.97427C4.79541 5.97636 4.79766 5.97845 4.79992 5.98055C4.80217 5.98264 4.80442 5.98473 4.80668 5.98682C4.80893 5.98891 4.81118 5.99101 4.81343 5.9931C4.81569 5.99519 4.81794 5.99728 4.82019 5.99938C4.82245 6.00147 4.8247 6.00356 4.82695 6.00565C4.82921 6.00774 4.83146 6.00984 4.83371 6.01193C4.83597 6.01402 4.83822 6.01611 4.84047 6.01821C4.84273 6.0203 4.84498 6.02239 4.84723 6.02448C4.84949 6.02658 4.85174 6.02867 4.85399 6.03076C4.85625 6.03285 4.8585 6.03495 4.86076 6.03704C4.86301 6.03913 4.86526 6.04122 4.86752 6.04332C4.86977 6.04541 4.87202 6.0475 4.87428 6.0496C4.87653 6.05169 4.87878 6.05378 4.88104 6.05587C4.88329 6.05797 4.88555 6.06006 4.8878 6.06215C4.89005 6.06424 4.89231 6.06634 4.89456 6.06843C4.89681 6.07052 4.89907 6.07261 4.90132 6.07471C4.90357 6.0768 4.90583 6.07889 4.90808 6.08098C4.91033 6.08308 4.91259 6.08517 4.91484 6.08726C4.91709 6.08935 4.91935 6.09145 4.9216 6.09354C4.92385 6.09563 4.92611 6.09772 4.92836 6.09981C4.93061 6.10191 4.93287 6.104 4.93512 6.10609C4.93737 6.10818 4.93963 6.11028 4.94188 6.11237C4.94413 6.11446 4.94638 6.11655 4.94864 6.11864C4.95089 6.12074 4.95314 6.12283 4.95539 6.12492C4.95765 6.12701 4.9599 6.1291 4.96215 6.13119C4.96441 6.13329 4.96666 6.13538 4.96891 6.13747C4.97116 6.13956 4.97341 6.14165 4.97567 6.14374C4.97792 6.14583 4.98017 6.14792 4.98242 6.15002C4.98467 6.15211 4.98693 6.1542 4.98918 6.15629C4.99143 6.15838 4.99368 6.16047 4.99593 6.16256C4.99818 6.16465 5.00043 6.16674 5.00269 6.16883C5.00494 6.17092 5.00719 6.17301 5.00944 6.1751C5.01169 6.17719 5.01394 6.17928 5.01619 6.18137C5.01844 6.18346 5.02069 6.18555 5.02294 6.18764C5.02519 6.18973 5.02744 6.19182 5.02969 6.19391C5.03194 6.196 5.03419 6.19809 5.03644 6.20018C5.03869 6.20227 5.04094 6.20435 5.04319 6.20644C5.04544 6.20853 5.04769 6.21062 5.04994 6.21271C5.05219 6.2148 5.05444 6.21688 5.05668 6.21897C5.05893 6.22106 5.06118 6.22315 5.06343 6.22524C5.06568 6.22732 5.06793 6.22941 5.07017 6.2315C5.07242 6.23359 5.07467 6.23567 5.07692 6.23776C5.07916 6.23985 5.08141 6.24193 5.08366 6.24402C5.0859 6.24611 5.08815 6.24819 5.0904 6.25028C5.09264 6.25236 5.09489 6.25445 5.09714 6.25654C5.09938 6.25862 5.10163 6.26071 5.10387 6.26279C5.10612 6.26488 5.10837 6.26696 5.11061 6.26905C5.11286 6.27113 5.1151 6.27322 5.11735 6.2753C5.11959 6.27739 5.12183 6.27947 5.12408 6.28155C5.12632 6.28364 5.12857 6.28572 5.13081 6.2878C5.13305 6.28989 5.1353 6.29197 5.13754 6.29405C5.13978 6.29614 5.14203 6.29822 5.14427 6.3003C5.14651 6.30238 5.14875 6.30447 5.151 6.30655C5.15324 6.30863 5.15548 6.31071 5.15772 6.31279C5.15996 6.31488 5.1622 6.31696 5.16445 6.31904C5.16669 6.32112 5.16893 6.3232 5.17117 6.32528C5.17341 6.32736 5.17565 6.32944 5.17789 6.33152C5.18013 6.3336 5.18237 6.33568 5.18461 6.33776C5.18684 6.33984 5.18908 6.34191 5.19132 6.34399C5.19356 6.34607 5.1958 6.34815 5.19804 6.35023C5.20027 6.35231 5.20251 6.35438 5.20475 6.35646C5.20699 6.35854 5.20922 6.36062 5.21146 6.36269C5.21369 6.36477 5.21593 6.36684 5.21817 6.36892C5.2204 6.371 5.22264 6.37307 5.22487 6.37515C5.22711 6.37722 5.22934 6.3793 5.23158 6.38137C5.23381 6.38345 5.23604 6.38552 5.23828 6.3876C5.24051 6.38967 5.24274 6.39174 5.24498 6.39382C5.24721 6.39589 5.24944 6.39796 5.25168 6.40004C5.25391 6.40211 5.25614 6.40418 5.25837 6.40625C5.2606 6.40832 5.26283 6.4104 5.26506 6.41247C5.26729 6.41454 5.26952 6.41661 5.27175 6.41868C5.27398 6.42075 5.27621 6.42282 5.27844 6.42489C5.28067 6.42696 5.2829 6.42903 5.28513 6.4311C5.28735 6.43317 5.28958 6.43523 5.29181 6.4373C5.29404 6.43937 5.29626 6.44144 5.29849 6.44351C5.30072 6.44557 5.30294 6.44764 5.30517 6.44971C5.30739 6.45177 5.30962 6.45384 5.31184 6.4559C5.31407 6.45797 5.31629 6.46004 5.31851 6.4621C5.32074 6.46417 5.32296 6.46623 5.32518 6.46829C5.32741 6.47036 5.32963 6.47242 5.33185 6.47448C5.33407 6.47655 5.33629 6.47861 5.33851 6.48067C5.34074 6.48273 5.34296 6.4848 5.34518 6.48686C5.3474 6.48892 5.34961 6.49098 5.35183 6.49304C5.35405 6.4951 5.35627 6.49716 5.35849 6.49922C5.36071 6.50128 5.36292 6.50334 5.36514 6.5054C5.36736 6.50746 5.36957 6.50951 5.37179 6.51157C5.37401 6.51363 5.37622 6.51569 5.37844 6.51774C5.38065 6.5198 5.38287 6.52186 5.38508 6.52391C5.38729 6.52597 5.38951 6.52802 5.39172 6.53008C5.39393 6.53213 5.39615 6.53419 5.39836 6.53624C5.40057 6.53829 5.40278 6.54035 5.40499 6.5424C5.4072 6.54445 5.40941 6.54651 5.41162 6.54856C5.41383 6.55061 5.41604 6.55266 5.41825 6.55471C5.42046 6.55676 5.42266 6.55881 5.42487 6.56086C5.42708 6.56291 5.42929 6.56496 5.43149 6.56701C5.4337 6.56906 5.4359 6.57111 5.43811 6.57315C5.44031 6.5752 5.44252 6.57725 5.44472 6.57929C5.44693 6.58134 5.44913 6.58339 5.45133 6.58543C5.45354 6.58748 5.45574 6.58952 5.45794 6.59157C5.46014 6.59361 5.46234 6.59566 5.46454 6.5977C5.46674 6.59974 5.46894 6.60178 5.47114 6.60383C5.47334 6.60587 5.47554 6.60791 5.47774 6.60995C5.47993 6.61199 5.48213 6.61403 5.48433 6.61607C5.48653 6.61811 5.48872 6.62015 5.49092 6.62219C5.49311 6.62423 5.49531 6.62627 5.4975 6.6283C5.4997 6.63034 5.50189 6.63238 5.50408 6.63441C5.50627 6.63645 5.50847 6.63849 5.51066 6.64052C5.51285 6.64256 5.51504 6.64459 5.51723 6.64662C5.51942 6.64866 5.52161 6.65069 5.5238 6.65272C5.52599 6.65476 5.52818 6.65679 5.53036 6.65882C5.53255 6.66085 5.53474 6.66288 5.53692 6.66491C5.53911 6.66694 5.5413 6.66897 5.54348 6.671C5.54567 6.67303 5.54785 6.67506 5.55003 6.67708C5.55222 6.67911 5.5544 6.68114 5.55658 6.68316C5.55876 6.68519 5.56095 6.68722 5.56313 6.68924C5.56531 6.69127 5.56749 6.69329 5.56967 6.69531C5.57185 6.69734 5.57402 6.69936 5.5762 6.70138C5.57838 6.7034 5.58056 6.70543 5.58273 6.70745C5.58491 6.70947 5.58708 6.71149 5.58926 6.71351C5.59143 6.71553 5.59361 6.71755 5.59578 6.71956C5.59796 6.72158 5.60013 6.7236 5.6023 6.72562C5.60447 6.72763 5.60664 6.72965 5.60881 6.73166C5.61098 6.73368 5.61315 6.73569 5.61532 6.73771C5.61749 6.73972 5.61966 6.74174 5.62183 6.74375C5.62399 6.74576 5.62616 6.74777 5.62833 6.74978C5.63049 6.75179 5.63266 6.7538 5.63482 6.75581C5.63699 6.75782 5.63915 6.75983 5.64131 6.76184C5.64347 6.76385 5.64564 6.76586 5.6478 6.76786C5.64996 6.76987 5.65212 6.77188 5.65428 6.77388C5.65644 6.77589 5.6586 6.77789 5.66075 6.77989C5.66291 6.7819 5.66507 6.7839 5.66722 6.7859C5.66938 6.78791 5.67154 6.78991 5.67369 6.79191C5.67585 6.79391 5.678 6.79591 5.68015 6.79791C5.68231 6.79991 5.68446 6.80191 5.68661 6.8039C5.68876 6.8059 5.69091 6.8079 5.69306 6.80989C5.69521 6.81189 5.69736 6.81388 5.69951 6.81588C5.70165 6.81787 5.7038 6.81987 5.70595 6.82186C5.70809 6.82385 5.71024 6.82584 5.71238 6.82784C5.71453 6.82983 5.71667 6.83182 5.71881 6.83381C5.72096 6.8358 5.7231 6.83779 5.72524 6.83977C5.72738 6.84176 5.72952 6.84375 5.73166 6.84574C5.7338 6.84772 5.73594 6.84971 5.73807 6.85169C5.74021 6.85368 5.74235 6.85566 5.74448 6.85764C5.74662 6.85963 5.74875 6.86161 5.75089 6.86359C5.75302 6.86557 5.75515 6.86755 5.75729 6.86953C5.75942 6.87151 5.76155 6.87349 5.76368 6.87547C5.76581 6.87745 5.76794 6.87942 5.77007 6.8814C5.77219 6.88338 5.77432 6.88535 5.77645 6.88733C5.77857 6.8893 5.7807 6.89127 5.78282 6.89325C5.78495 6.89522 5.78707 6.89719 5.7892 6.89916C5.79132 6.90113 5.79344 6.9031 5.79556 6.90507C5.79768 6.90704 5.7998 6.90901 5.80192 6.91098C5.80404 6.91295 5.80616 6.91491 5.80827 6.91688C5.81039 6.91884 5.81251 6.92081 5.81462 6.92277C5.81674 6.92474 5.81885 6.9267 5.82096 6.92866C5.82308 6.93062 5.82519 6.93258 5.8273 6.93454C5.82941 6.9365 5.83152 6.93846 5.83363 6.94042C5.83574 6.94238 5.83785 6.94434 5.83995 6.94629C5.84206 6.94825 5.84417 6.95021 5.84627 6.95216C5.84838 6.95412 5.85048 6.95607 5.85258 6.95802C5.85469 6.95997 5.85679 6.96193 5.85889 6.96388C5.86099 6.96583 5.86309 6.96778 5.86519 6.96973C5.86729 6.97168 5.86938 6.97362 5.87148 6.97557C5.87358 6.97752 5.87567 6.97946 5.87777 6.98141C5.87986 6.98335 5.88196 6.9853 5.88405 6.98724C5.88614 6.98918 5.88823 6.99113 5.89032 6.99307C5.89242 6.99501 5.8945 6.99695 5.89659 6.99889C5.89868 7.00083 5.90077 7.00277 5.90285 7.0047C5.90494 7.00664 5.90703 7.00858 5.90911 7.01051C5.91119 7.01245 5.91328 7.01438 5.91536 7.01631C5.91744 7.01825 5.91952 7.02018 5.9216 7.02211C5.92368 7.02404 5.92576 7.02597 5.92784 7.0279C5.92992 7.02983 5.93199 7.03176 5.93407 7.03369C5.93614 7.03561 5.93822 7.03754 5.94029 7.03946C5.94236 7.04139 5.94443 7.04331 5.94651 7.04524C5.94858 7.04716 5.95065 7.04908 5.95272 7.051C5.95478 7.05292 5.95685 7.05484 5.95892 7.05676C5.96098 7.05868 5.96305 7.0606 5.96511 7.06251C5.96718 7.06443 5.96924 7.06635 5.9713 7.06826C5.97336 7.07018 5.97542 7.07209 5.97748 7.074C5.97954 7.07591 5.9816 7.07783 5.98366 7.07974C5.98572 7.08165 5.98777 7.08355 5.98983 7.08546C5.99188 7.08737 5.99394 7.08928 5.99599 7.09118C5.99804 7.09309 6.00009 7.09499 6.00214 7.0969C6.00419 7.0988 6.00624 7.1007 6.00829 7.10261C6.01034 7.10451 6.01238 7.10641 6.01443 7.10831C6.01647 7.11021 6.01852 7.1121 6.02056 7.114C6.0226 7.1159 6.02465 7.11779 6.02669 7.11969C6.02873 7.12158 6.03077 7.12348 6.0328 7.12537C6.03484 7.12726 6.03688 7.12915 6.03892 7.13105C6.04095 7.13294 6.04299 7.13482 6.04502 7.13671C6.04705 7.1386 6.04908 7.14049 6.05111 7.14237C6.05315 7.14426 6.05518 7.14614 6.0572 7.14803C6.05923 7.14991 6.06126 7.15179 6.06328 7.15367C6.06531 7.15555 6.06733 7.15743 6.06936 7.15931C6.07138 7.16119 6.0734 7.16307 6.07542 7.16495C6.07745 7.16682 6.07946 7.1687 6.08148 7.17057C6.0835 7.17245 6.08552 7.17432 6.08753 7.17619C6.08955 7.17806 6.09156 7.17993 6.09358 7.1818C6.09559 7.18367 6.0976 7.18554 6.09961 7.18741C6.10162 7.18927 6.10363 7.19114 6.10564 7.193C6.10765 7.19487 6.10965 7.19673 6.11166 7.19859C6.11367 7.20046 6.11567 7.20232 6.11767 7.20418C6.11967 7.20604 6.12168 7.20789 6.12368 7.20975C6.12568 7.21161 6.12767 7.21346 6.12967 7.21532C6.13167 7.21717 6.13367 7.21903 6.13566 7.22088C6.13766 7.22273 6.13965 7.22458 6.14164 7.22643C6.14363 7.22828 6.14562 7.23013 6.14761 7.23198C6.1496 7.23383 6.15159 7.23567 6.15358 7.23752C6.15556 7.23936 6.15755 7.24121 6.15953 7.24305C6.16152 7.24489 6.1635 7.24673 6.16548 7.24857C6.16746 7.25041 6.16944 7.25225 6.17142 7.25409C6.1734 7.25592 6.17538 7.25776 6.17735 7.25959C6.17933 7.26143 6.1813 7.26326 6.18328 7.26509C6.18525 7.26693 6.18722 7.26876 6.18919 7.27059C6.19116 7.27242 6.19313 7.27424 6.1951 7.27607C6.19706 7.2779 6.19903 7.27972 6.20099 7.28155C6.20296 7.28337 6.20492 7.28519 6.20688 7.28702C6.20885 7.28884 6.21081 7.29066 6.21276 7.29248C6.21472 7.2943 6.21668 7.29611 6.21864 7.29793C6.22059 7.29975 6.22255 7.30156 6.2245 7.30337C6.22645 7.30519 6.22841 7.307 6.23036 7.30881C6.23231 7.31062 6.23426 7.31243 6.2362 7.31424C6.23815 7.31605 6.2401 7.31786 6.24204 7.31966C6.24399 7.32147 6.24593 7.32327 6.24787 7.32507C6.24981 7.32688 6.25175 7.32868 6.25369 7.33048C6.25563 7.33228 6.25757 7.33408 6.2595 7.33588C6.26144 7.33767 6.26337 7.33947 6.2653 7.34126C6.26724 7.34306 6.26917 7.34485 6.2711 7.34664C6.27303 7.34844 6.27496 7.35023 6.27688 7.35202C6.27881 7.3538 6.28074 7.35559 6.28266 7.35738C6.28458 7.35916 6.2865 7.36095 6.28843 7.36273C6.29035 7.36452 6.29227 7.3663 6.29418 7.36808C6.2961 7.36986 6.29802 7.37164 6.29993 7.37342C6.30185 7.3752 6.30376 7.37697 6.30567 7.37875C6.30758 7.38052 6.30949 7.3823 6.3114 7.38407C6.31331 7.38584 6.31522 7.38761 6.31712 7.38938C6.31903 7.39115 6.32093 7.39292 6.32283 7.39468C6.32474 7.39645 6.32664 7.39822 6.32854 7.39998C6.33044 7.40174 6.33233 7.4035 6.33423 7.40527C6.33613 7.40703 6.33802 7.40878 6.33991 7.41054C6.34181 7.4123 6.3437 7.41406 6.34559 7.41581C6.34748 7.41757 6.34937 7.41932 6.35125 7.42107C6.35314 7.42282 6.35502 7.42457 6.35691 7.42632C6.35879 7.42807 6.36067 7.42982 6.36255 7.43156C6.36443 7.43331 6.36631 7.43506 6.36819 7.4368C6.37007 7.43854 6.37194 7.44028 6.37381 7.44202C6.37569 7.44376 6.37756 7.4455 6.37943 7.44724C6.3813 7.44897 6.38317 7.45071 6.38504 7.45244C6.3869 7.45418 6.38877 7.45591 6.39063 7.45764C6.3925 7.45937 6.39436 7.4611 6.39622 7.46283C6.39808 7.46456 6.39994 7.46628 6.4018 7.46801C6.40366 7.46973 6.40551 7.47146 6.40737 7.47318C6.40922 7.4749 6.41107 7.47662 6.41292 7.47834C6.41477 7.48006 6.41662 7.48177 6.41847 7.48349C6.42032 7.48521 6.42216 7.48692 6.42401 7.48863C6.42585 7.49034 6.4277 7.49206 6.42954 7.49376C6.43138 7.49547 6.43322 7.49718 6.43505 7.49889C6.43689 7.50059 6.43873 7.5023 6.44056 7.504C6.44239 7.5057 6.44423 7.50741 6.44606 7.50911C6.44789 7.51081 6.44972 7.5125 6.45154 7.5142C6.45337 7.5159 6.4552 7.51759 6.45702 7.51929C6.45884 7.52098 6.46067 7.52267 6.46249 7.52436C6.46431 7.52605 6.46613 7.52774 6.46794 7.52943C6.46976 7.53111 6.47157 7.5328 6.47339 7.53448C6.4752 7.53617 6.47701 7.53785 6.47882 7.53953C6.48063 7.54121 6.48244 7.54289 6.48425 7.54457C6.48605 7.54625 6.48786 7.54792 6.48966 7.5496L7.51034 6.4504C7.50854 6.44873 7.50673 6.44706 7.50492 6.44538C7.50312 6.4437 7.50131 6.44202 7.4995 6.44034C7.49769 6.43866 7.49588 6.43698 7.49407 6.43529C7.49225 6.43361 7.49044 6.43192 7.48862 6.43024C7.4868 6.42855 7.48498 6.42686 7.48316 6.42517C7.48134 6.42348 7.47952 6.42179 7.4777 6.4201C7.47587 6.4184 7.47405 6.41671 7.47222 6.41501C7.47039 6.41331 7.46857 6.41162 7.46673 6.40992C7.4649 6.40822 7.46307 6.40651 7.46124 6.40481C7.4594 6.40311 7.45757 6.4014 7.45573 6.3997C7.45389 6.39799 7.45205 6.39628 7.45021 6.39457C7.44837 6.39287 7.44653 6.39115 7.44469 6.38944C7.44284 6.38773 7.441 6.38602 7.43915 6.3843C7.4373 6.38258 7.43545 6.38087 7.4336 6.37915C7.43175 6.37743 7.4299 6.37571 7.42804 6.37399C7.42619 6.37227 7.42433 6.37054 7.42248 6.36882C7.42062 6.36709 7.41876 6.36537 7.4169 6.36364C7.41504 6.36191 7.41318 6.36018 7.41131 6.35845C7.40945 6.35672 7.40758 6.35499 7.40571 6.35325C7.40385 6.35152 7.40198 6.34978 7.40011 6.34805C7.39824 6.34631 7.39636 6.34457 7.39449 6.34283C7.39262 6.34109 7.39074 6.33935 7.38886 6.33761C7.38699 6.33587 7.38511 6.33412 7.38323 6.33237C7.38135 6.33063 7.37947 6.32888 7.37758 6.32713C7.3757 6.32538 7.37381 6.32363 7.37193 6.32188C7.37004 6.32013 7.36815 6.31838 7.36626 6.31662C7.36437 6.31487 7.36248 6.31311 7.36059 6.31135C7.3587 6.30959 7.3568 6.30784 7.35491 6.30607C7.35301 6.30431 7.35111 6.30255 7.34921 6.30079C7.34731 6.29903 7.34541 6.29726 7.34351 6.29549C7.34161 6.29373 7.3397 6.29196 7.3378 6.29019C7.33589 6.28842 7.33399 6.28665 7.33208 6.28488C7.33017 6.28311 7.32826 6.28133 7.32635 6.27956C7.32444 6.27778 7.32252 6.27601 7.32061 6.27423C7.31869 6.27245 7.31678 6.27067 7.31486 6.26889C7.31294 6.26711 7.31102 6.26533 7.3091 6.26354C7.30718 6.26176 7.30526 6.25997 7.30334 6.25819C7.30141 6.2564 7.29949 6.25461 7.29756 6.25282C7.29563 6.25104 7.2937 6.24925 7.29178 6.24745C7.28985 6.24566 7.28791 6.24387 7.28598 6.24207C7.28405 6.24028 7.28211 6.23848 7.28018 6.23669C7.27824 6.23489 7.27631 6.23309 7.27437 6.23129C7.27243 6.22949 7.27049 6.22769 7.26855 6.22588C7.26661 6.22408 7.26466 6.22228 7.26272 6.22047C7.26077 6.21867 7.25883 6.21686 7.25688 6.21505C7.25493 6.21324 7.25298 6.21143 7.25103 6.20962C7.24908 6.20781 7.24713 6.206 7.24518 6.20418C7.24322 6.20237 7.24127 6.20056 7.23931 6.19874C7.23736 6.19692 7.2354 6.19511 7.23344 6.19329C7.23148 6.19147 7.22952 6.18965 7.22756 6.18783C7.2256 6.186 7.22364 6.18418 7.22167 6.18236C7.21971 6.18053 7.21774 6.17871 7.21577 6.17688C7.21381 6.17505 7.21184 6.17323 7.20987 6.1714C7.2079 6.16957 7.20593 6.16774 7.20395 6.1659C7.20198 6.16407 7.2 6.16224 7.19803 6.1604C7.19605 6.15857 7.19408 6.15673 7.1921 6.1549C7.19012 6.15306 7.18814 6.15122 7.18616 6.14938C7.18418 6.14754 7.18219 6.1457 7.18021 6.14386C7.17823 6.14201 7.17624 6.14017 7.17425 6.13833C7.17227 6.13648 7.17028 6.13464 7.16829 6.13279C7.1663 6.13094 7.16431 6.12909 7.16232 6.12724C7.16033 6.12539 7.15833 6.12354 7.15634 6.12169C7.15434 6.11984 7.15235 6.11798 7.15035 6.11613C7.14835 6.11427 7.14635 6.11242 7.14435 6.11056C7.14235 6.1087 7.14035 6.10685 7.13835 6.10499C7.13635 6.10313 7.13434 6.10127 7.13234 6.0994C7.13033 6.09754 7.12832 6.09568 7.12632 6.09381C7.12431 6.09195 7.1223 6.09008 7.12029 6.08822C7.11828 6.08635 7.11627 6.08448 7.11425 6.08261C7.11224 6.08074 7.11023 6.07887 7.10821 6.077C7.10619 6.07513 7.10418 6.07326 7.10216 6.07138C7.10014 6.06951 7.09812 6.06763 7.0961 6.06576C7.09408 6.06388 7.09206 6.062 7.09003 6.06012C7.08801 6.05824 7.08599 6.05636 7.08396 6.05448C7.08194 6.0526 7.07991 6.05072 7.07788 6.04884C7.07585 6.04695 7.07382 6.04507 7.07179 6.04318C7.06976 6.0413 7.06773 6.03941 7.0657 6.03752C7.06366 6.03563 7.06163 6.03375 7.05959 6.03185C7.05756 6.02996 7.05552 6.02807 7.05348 6.02618C7.05144 6.02429 7.0494 6.02239 7.04736 6.0205C7.04532 6.0186 7.04328 6.01671 7.04124 6.01481C7.03919 6.01291 7.03715 6.01102 7.03511 6.00912C7.03306 6.00722 7.03101 6.00532 7.02897 6.00342C7.02692 6.00151 7.02487 5.99961 7.02282 5.99771C7.02077 5.9958 7.01872 5.9939 7.01666 5.99199C7.01461 5.99009 7.01256 5.98818 7.0105 5.98627C7.00845 5.98436 7.00639 5.98246 7.00434 5.98055C7.00228 5.97864 7.00022 5.97672 6.99816 5.97481C6.9961 5.9729 6.99404 5.97099 6.99198 5.96907C6.98992 5.96716 6.98785 5.96524 6.98579 5.96332C6.98373 5.96141 6.98166 5.95949 6.97959 5.95757C6.97753 5.95565 6.97546 5.95373 6.97339 5.95181C6.97132 5.94989 6.96925 5.94797 6.96718 5.94605C6.96511 5.94412 6.96304 5.9422 6.96097 5.94027C6.95889 5.93835 6.95682 5.93642 6.95474 5.9345C6.95267 5.93257 6.95059 5.93064 6.94851 5.92871C6.94644 5.92678 6.94436 5.92485 6.94228 5.92292C6.9402 5.92099 6.93812 5.91906 6.93604 5.91712C6.93395 5.91519 6.93187 5.91326 6.92979 5.91132C6.9277 5.90939 6.92562 5.90745 6.92353 5.90551C6.92145 5.90358 6.91936 5.90164 6.91727 5.8997C6.91518 5.89776 6.91309 5.89582 6.911 5.89388C6.90891 5.89194 6.90682 5.88999 6.90473 5.88805C6.90263 5.88611 6.90054 5.88416 6.89845 5.88222C6.89635 5.88027 6.89426 5.87833 6.89216 5.87638C6.89006 5.87443 6.88796 5.87249 6.88586 5.87054C6.88377 5.86859 6.88167 5.86664 6.87957 5.86469C6.87746 5.86274 6.87536 5.86078 6.87326 5.85883C6.87116 5.85688 6.86905 5.85493 6.86695 5.85297C6.86484 5.85102 6.86274 5.84906 6.86063 5.8471C6.85852 5.84515 6.85641 5.84319 6.85431 5.84123C6.8522 5.83927 6.85009 5.83731 6.84798 5.83535C6.84586 5.83339 6.84375 5.83143 6.84164 5.82947C6.83953 5.82751 6.83741 5.82555 6.8353 5.82358C6.83318 5.82162 6.83107 5.81965 6.82895 5.81769C6.82683 5.81572 6.82472 5.81375 6.8226 5.81179C6.82048 5.80982 6.81836 5.80785 6.81624 5.80588C6.81412 5.80391 6.81199 5.80194 6.80987 5.79997C6.80775 5.798 6.80563 5.79603 6.8035 5.79406C6.80138 5.79208 6.79925 5.79011 6.79712 5.78814C6.795 5.78616 6.79287 5.78419 6.79074 5.78221C6.78861 5.78023 6.78649 5.77826 6.78436 5.77628C6.78223 5.7743 6.78009 5.77232 6.77796 5.77034C6.77583 5.76836 6.7737 5.76638 6.77156 5.7644C6.76943 5.76242 6.7673 5.76044 6.76516 5.75845C6.76302 5.75647 6.76089 5.75449 6.75875 5.7525C6.75661 5.75052 6.75447 5.74853 6.75234 5.74655C6.7502 5.74456 6.74806 5.74257 6.74592 5.74058C6.74377 5.7386 6.74163 5.73661 6.73949 5.73462C6.73735 5.73263 6.7352 5.73064 6.73306 5.72865C6.73091 5.72665 6.72877 5.72466 6.72662 5.72267C6.72448 5.72068 6.72233 5.71868 6.72018 5.71669C6.71803 5.71469 6.71589 5.7127 6.71374 5.7107C6.71159 5.70871 6.70944 5.70671 6.70729 5.70471C6.70513 5.70271 6.70298 5.70072 6.70083 5.69872C6.69868 5.69672 6.69652 5.69472 6.69437 5.69272C6.69221 5.69072 6.69006 5.68872 6.6879 5.68671C6.68575 5.68471 6.68359 5.68271 6.68143 5.6807C6.67927 5.6787 6.67711 5.6767 6.67495 5.67469C6.67279 5.67269 6.67063 5.67068 6.66847 5.66867C6.66631 5.66667 6.66415 5.66466 6.66199 5.66265C6.65983 5.66064 6.65766 5.65863 6.6555 5.65662C6.65333 5.65461 6.65117 5.6526 6.649 5.65059C6.64684 5.64858 6.64467 5.64657 6.6425 5.64456C6.64034 5.64255 6.63817 5.64053 6.636 5.63852C6.63383 5.6365 6.63166 5.63449 6.62949 5.63247C6.62732 5.63046 6.62515 5.62844 6.62298 5.62643C6.6208 5.62441 6.61863 5.62239 6.61646 5.62037C6.61429 5.61836 6.61211 5.61634 6.60994 5.61432C6.60776 5.6123 6.60559 5.61028 6.60341 5.60826C6.60123 5.60624 6.59906 5.60421 6.59688 5.60219C6.5947 5.60017 6.59252 5.59815 6.59034 5.59612C6.58816 5.5941 6.58598 5.59208 6.5838 5.59005C6.58162 5.58803 6.57944 5.586 6.57726 5.58397C6.57508 5.58195 6.57289 5.57992 6.57071 5.57789C6.56853 5.57587 6.56634 5.57384 6.56416 5.57181C6.56197 5.56978 6.55979 5.56775 6.5576 5.56572C6.55542 5.56369 6.55323 5.56166 6.55104 5.55963C6.54885 5.5576 6.54667 5.55557 6.54448 5.55353C6.54229 5.5515 6.5401 5.54947 6.53791 5.54743C6.53572 5.5454 6.53353 5.54337 6.53133 5.54133C6.52914 5.5393 6.52695 5.53726 6.52476 5.53522C6.52257 5.53319 6.52037 5.53115 6.51818 5.52911C6.51598 5.52708 6.51379 5.52504 6.51159 5.523C6.5094 5.52096 6.5072 5.51892 6.50501 5.51688C6.50281 5.51484 6.50061 5.5128 6.49841 5.51076C6.49622 5.50872 6.49402 5.50668 6.49182 5.50464C6.48962 5.50259 6.48742 5.50055 6.48522 5.49851C6.48302 5.49647 6.48082 5.49442 6.47862 5.49238C6.47641 5.49033 6.47421 5.48829 6.47201 5.48624C6.46981 5.4842 6.4676 5.48215 6.4654 5.4801C6.4632 5.47806 6.46099 5.47601 6.45879 5.47396C6.45658 5.47192 6.45438 5.46987 6.45217 5.46782C6.44996 5.46577 6.44776 5.46372 6.44555 5.46167C6.44334 5.45962 6.44113 5.45757 6.43892 5.45552C6.43672 5.45347 6.43451 5.45142 6.4323 5.44937C6.43009 5.44732 6.42788 5.44526 6.42567 5.44321C6.42346 5.44116 6.42125 5.4391 6.41903 5.43705C6.41682 5.435 6.41461 5.43294 6.4124 5.43089C6.41018 5.42883 6.40797 5.42678 6.40576 5.42472C6.40354 5.42267 6.40133 5.42061 6.39911 5.41855C6.3969 5.4165 6.39468 5.41444 6.39247 5.41238C6.39025 5.41032 6.38803 5.40827 6.38582 5.40621C6.3836 5.40415 6.38138 5.40209 6.37917 5.40003C6.37695 5.39797 6.37473 5.39591 6.37251 5.39385C6.37029 5.39179 6.36807 5.38973 6.36585 5.38767C6.36363 5.38561 6.36141 5.38354 6.35919 5.38148C6.35697 5.37942 6.35475 5.37736 6.35253 5.37529C6.35031 5.37323 6.34808 5.37117 6.34586 5.3691C6.34364 5.36704 6.34141 5.36498 6.33919 5.36291C6.33697 5.36085 6.33474 5.35878 6.33252 5.35671C6.33029 5.35465 6.32807 5.35258 6.32584 5.35052C6.32362 5.34845 6.32139 5.34638 6.31917 5.34432C6.31694 5.34225 6.31471 5.34018 6.31249 5.33811C6.31026 5.33604 6.30803 5.33398 6.3058 5.33191C6.30357 5.32984 6.30135 5.32777 6.29912 5.3257C6.29689 5.32363 6.29466 5.32156 6.29243 5.31949C6.2902 5.31742 6.28797 5.31535 6.28574 5.31328C6.28351 5.31121 6.28128 5.30913 6.27905 5.30706C6.27682 5.30499 6.27458 5.30292 6.27235 5.30085C6.27012 5.29877 6.26789 5.2967 6.26565 5.29463C6.26342 5.29255 6.26119 5.29048 6.25895 5.28841C6.25672 5.28633 6.25449 5.28426 6.25225 5.28218C6.25002 5.28011 6.24778 5.27803 6.24555 5.27596C6.24331 5.27388 6.24108 5.27181 6.23884 5.26973C6.23661 5.26765 6.23437 5.26558 6.23213 5.2635C6.2299 5.26143 6.22766 5.25935 6.22542 5.25727C6.22319 5.25519 6.22095 5.25312 6.21871 5.25104C6.21647 5.24896 6.21424 5.24688 6.212 5.2448C6.20976 5.24272 6.20752 5.24065 6.20528 5.23857C6.20304 5.23649 6.2008 5.23441 6.19856 5.23233C6.19632 5.23025 6.19408 5.22817 6.19184 5.22609C6.1896 5.22401 6.18736 5.22193 6.18512 5.21985C6.18288 5.21777 6.18064 5.21568 6.1784 5.2136C6.17616 5.21152 6.17392 5.20944 6.17167 5.20736C6.16943 5.20528 6.16719 5.20319 6.16495 5.20111C6.1627 5.19903 6.16046 5.19695 6.15822 5.19486C6.15597 5.19278 6.15373 5.1907 6.15149 5.18861C6.14924 5.18653 6.147 5.18445 6.14476 5.18236C6.14251 5.18028 6.14027 5.1782 6.13802 5.17611C6.13578 5.17403 6.13353 5.17194 6.13129 5.16986C6.12904 5.16777 6.1268 5.16569 6.12455 5.1636C6.12231 5.16152 6.12006 5.15943 6.11781 5.15735C6.11557 5.15526 6.11332 5.15317 6.11107 5.15109C6.10883 5.149 6.10658 5.14692 6.10433 5.14483C6.10209 5.14274 6.09984 5.14066 6.09759 5.13857C6.09535 5.13648 6.0931 5.1344 6.09085 5.13231C6.0886 5.13022 6.08635 5.12813 6.08411 5.12605C6.08186 5.12396 6.07961 5.12187 6.07736 5.11978C6.07511 5.11769 6.07286 5.11561 6.07061 5.11352C6.06837 5.11143 6.06612 5.10934 6.06387 5.10725C6.06162 5.10516 6.05937 5.10308 6.05712 5.10099C6.05487 5.0989 6.05262 5.09681 6.05037 5.09472C6.04812 5.09263 6.04587 5.09054 6.04362 5.08845C6.04137 5.08636 6.03912 5.08427 6.03687 5.08218C6.03462 5.08009 6.03237 5.078 6.03012 5.07591C6.02786 5.07382 6.02561 5.07173 6.02336 5.06964C6.02111 5.06755 6.01886 5.06546 6.01661 5.06337C6.01436 5.06128 6.01211 5.05919 6.00985 5.0571C6.0076 5.05501 6.00535 5.05292 6.0031 5.05083C6.00085 5.04873 5.99859 5.04664 5.99634 5.04455C5.99409 5.04246 5.99184 5.04037 5.98959 5.03828C5.98733 5.03619 5.98508 5.0341 5.98283 5.032C5.98058 5.02991 5.97832 5.02782 5.97607 5.02573C5.97382 5.02364 5.97157 5.02155 5.96931 5.01945C5.96706 5.01736 5.96481 5.01527 5.96256 5.01318C5.9603 5.01109 5.95805 5.00899 5.9558 5.0069C5.95354 5.00481 5.95129 5.00272 5.94904 5.00062C5.94678 4.99853 5.94453 4.99644 5.94228 4.99435C5.94002 4.99226 5.93777 4.99016 5.93552 4.98807C5.93326 4.98598 5.93101 4.98389 5.92876 4.98179C5.9265 4.9797 5.92425 4.97761 5.922 4.97552C5.91974 4.97342 5.91749 4.97133 5.91524 4.96924C5.91298 4.96715 5.91073 4.96505 5.90848 4.96296C5.90622 4.96087 5.90397 4.95878 5.90171 4.95668C5.89946 4.95459 5.89721 4.9525 5.89495 4.9504C5.8927 4.94831 5.89045 4.94622 5.88819 4.94413C5.88594 4.94203 5.88369 4.93994 5.88143 4.93785C5.87918 4.93576 5.87693 4.93366 5.87467 4.93157C5.87242 4.92948 5.87016 4.92739 5.86791 4.92529C5.86566 4.9232 5.8634 4.92111 5.86115 4.91902C5.8589 4.91692 5.85664 4.91483 5.85439 4.91274C5.85214 4.91065 5.84988 4.90855 5.84763 4.90646C5.84538 4.90437 5.84312 4.90228 5.84087 4.90018C5.83862 4.89809 5.83636 4.896 5.83411 4.89391C5.83186 4.89182 5.82961 4.88972 5.82735 4.88763C5.8251 4.88554 5.82285 4.88345 5.82059 4.88136C5.81834 4.87926 5.81609 4.87717 5.81384 4.87508C5.81158 4.87299 5.80933 4.8709 5.80708 4.86881C5.80483 4.86671 5.80257 4.86462 5.80032 4.86253C5.79807 4.86044 5.79582 4.85835 5.79356 4.85626C5.79131 4.85417 5.78906 4.85208 5.78681 4.84998C5.78456 4.84789 5.78231 4.8458 5.78005 4.84371C5.7778 4.84162 5.77555 4.83953 5.7733 4.83744C5.77105 4.83535 5.7688 4.83326 5.76655 4.83117C5.76429 4.82908 5.76204 4.82699 5.75979 4.8249C5.75754 4.82281 5.75529 4.82072 5.75304 4.81863C5.75079 4.81654 5.74854 4.81445 5.74629 4.81236C5.74404 4.81027 5.74179 4.80818 5.73954 4.80609C5.73729 4.804 5.73504 4.80191 5.73279 4.79982C5.73054 4.79773 5.72829 4.79565 5.72604 4.79356C5.72379 4.79147 5.72154 4.78938 5.71929 4.78729C5.71704 4.7852 5.7148 4.78312 5.71255 4.78103C5.7103 4.77894 5.70805 4.77685 5.7058 4.77476C5.70355 4.77268 5.70131 4.77059 5.69906 4.7685C5.69681 4.76641 5.69456 4.76433 5.69231 4.76224C5.69007 4.76015 5.68782 4.75807 5.68557 4.75598C5.68333 4.75389 5.68108 4.75181 5.67883 4.74972C5.67659 4.74764 5.67434 4.74555 5.67209 4.74346C5.66985 4.74138 5.6676 4.73929 5.66536 4.73721C5.66311 4.73512 5.66087 4.73304 5.65862 4.73095C5.65637 4.72887 5.65413 4.72678 5.65189 4.7247C5.64964 4.72261 5.6474 4.72053 5.64515 4.71845C5.64291 4.71636 5.64066 4.71428 5.63842 4.71219C5.63618 4.71011 5.63393 4.70803 5.63169 4.70595C5.62945 4.70386 5.6272 4.70178 5.62496 4.6997C5.62272 4.69762 5.62048 4.69553 5.61823 4.69345C5.61599 4.69137 5.61375 4.68929 5.61151 4.68721C5.60927 4.68512 5.60703 4.68304 5.60479 4.68096C5.60254 4.67888 5.6003 4.6768 5.59806 4.67472C5.59582 4.67264 5.59358 4.67056 5.59134 4.66848C5.5891 4.6664 5.58686 4.66432 5.58463 4.66224C5.58239 4.66016 5.58015 4.65809 5.57791 4.65601C5.57567 4.65393 5.57343 4.65185 5.5712 4.64977C5.56896 4.64769 5.56672 4.64562 5.56448 4.64354C5.56225 4.64146 5.56001 4.63938 5.55777 4.63731C5.55554 4.63523 5.5533 4.63315 5.55106 4.63108C5.54883 4.629 5.54659 4.62693 5.54436 4.62485C5.54212 4.62278 5.53989 4.6207 5.53765 4.61863C5.53542 4.61655 5.53319 4.61448 5.53095 4.6124C5.52872 4.61033 5.52649 4.60826 5.52425 4.60618C5.52202 4.60411 5.51979 4.60204 5.51756 4.59996C5.51532 4.59789 5.51309 4.59582 5.51086 4.59375C5.50863 4.59168 5.5064 4.5896 5.50417 4.58753C5.50194 4.58546 5.49971 4.58339 5.49748 4.58132C5.49525 4.57925 5.49302 4.57718 5.49079 4.57511C5.48856 4.57304 5.48633 4.57097 5.4841 4.5689C5.48188 4.56683 5.47965 4.56477 5.47742 4.5627C5.47519 4.56063 5.47297 4.55856 5.47074 4.55649C5.46852 4.55443 5.46629 4.55236 5.46406 4.55029C5.46184 4.54823 5.45961 4.54616 5.45739 4.5441C5.45516 4.54203 5.45294 4.53996 5.45072 4.5379C5.44849 4.53583 5.44627 4.53377 5.44405 4.53171C5.44182 4.52964 5.4396 4.52758 5.43738 4.52552C5.43516 4.52345 5.43294 4.52139 5.43072 4.51933C5.4285 4.51727 5.42628 4.5152 5.42406 4.51314C5.42184 4.51108 5.41962 4.50902 5.4174 4.50696C5.41518 4.5049 5.41296 4.50284 5.41074 4.50078C5.40852 4.49872 5.40631 4.49666 5.40409 4.4946C5.40187 4.49254 5.39966 4.49049 5.39744 4.48843C5.39522 4.48637 5.39301 4.48431 5.39079 4.48226C5.38858 4.4802 5.38636 4.47814 5.38415 4.47609C5.38194 4.47403 5.37972 4.47198 5.37751 4.46992C5.3753 4.46787 5.37309 4.46581 5.37087 4.46376C5.36866 4.46171 5.36645 4.45965 5.36424 4.4576C5.36203 4.45555 5.35982 4.45349 5.35761 4.45144C5.3554 4.44939 5.35319 4.44734 5.35098 4.44529C5.34877 4.44324 5.34657 4.44119 5.34436 4.43914C5.34215 4.43709 5.33994 4.43504 5.33774 4.43299C5.33553 4.43094 5.33333 4.42889 5.33112 4.42685C5.32892 4.4248 5.32671 4.42275 5.32451 4.42071C5.3223 4.41866 5.3201 4.41661 5.3179 4.41457C5.3157 4.41252 5.31349 4.41048 5.31129 4.40843C5.30909 4.40639 5.30689 4.40434 5.30469 4.4023C5.30249 4.40026 5.30029 4.39822 5.29809 4.39617C5.29589 4.39413 5.29369 4.39209 5.29149 4.39005C5.2893 4.38801 5.2871 4.38597 5.2849 4.38393C5.28271 4.38189 5.28051 4.37985 5.27831 4.37781C5.27612 4.37577 5.27392 4.37373 5.27173 4.3717C5.26954 4.36966 5.26734 4.36762 5.26515 4.36559C5.26296 4.36355 5.26076 4.36151 5.25857 4.35948C5.25638 4.35744 5.25419 4.35541 5.252 4.35338C5.24981 4.35134 5.24762 4.34931 5.24543 4.34728C5.24324 4.34524 5.24105 4.34321 5.23887 4.34118C5.23668 4.33915 5.23449 4.33712 5.23231 4.33509C5.23012 4.33306 5.22793 4.33103 5.22575 4.329C5.22356 4.32697 5.22138 4.32494 5.2192 4.32292C5.21701 4.32089 5.21483 4.31886 5.21265 4.31684C5.21047 4.31481 5.20829 4.31278 5.2061 4.31076C5.20392 4.30873 5.20174 4.30671 5.19956 4.30469C5.19739 4.30266 5.19521 4.30064 5.19303 4.29862C5.19085 4.2966 5.18867 4.29457 5.1865 4.29255C5.18432 4.29053 5.18215 4.28851 5.17997 4.28649C5.1778 4.28447 5.17562 4.28245 5.17345 4.28044C5.17128 4.27842 5.1691 4.2764 5.16693 4.27438C5.16476 4.27237 5.16259 4.27035 5.16042 4.26834C5.15825 4.26632 5.15608 4.26431 5.15391 4.26229C5.15174 4.26028 5.14957 4.25826 5.1474 4.25625C5.14524 4.25424 5.14307 4.25223 5.1409 4.25022C5.13874 4.24821 5.13657 4.2462 5.13441 4.24419C5.13225 4.24218 5.13008 4.24017 5.12792 4.23816C5.12576 4.23615 5.1236 4.23414 5.12143 4.23214C5.11927 4.23013 5.11711 4.22812 5.11495 4.22612C5.11279 4.22411 5.11064 4.22211 5.10848 4.22011C5.10632 4.2181 5.10416 4.2161 5.10201 4.2141C5.09985 4.21209 5.09769 4.21009 5.09554 4.20809C5.09339 4.20609 5.09123 4.20409 5.08908 4.20209C5.08693 4.20009 5.08477 4.19809 5.08262 4.1961C5.08047 4.1941 5.07832 4.1921 5.07617 4.19011C5.07402 4.18811 5.07187 4.18612 5.06973 4.18412C5.06758 4.18213 5.06543 4.18013 5.06328 4.17814C5.06114 4.17615 5.05899 4.17416 5.05685 4.17216C5.0547 4.17017 5.05256 4.16818 5.05042 4.16619C5.04827 4.1642 5.04613 4.16221 5.04399 4.16023C5.04185 4.15824 5.03971 4.15625 5.03757 4.15426C5.03543 4.15228 5.03329 4.15029 5.03116 4.14831C5.02902 4.14632 5.02688 4.14434 5.02475 4.14236C5.02261 4.14037 5.02048 4.13839 5.01834 4.13641C5.01621 4.13443 5.01408 4.13245 5.01195 4.13047C5.00981 4.12849 5.00768 4.12651 5.00555 4.12453C5.00342 4.12255 5.00129 4.12058 4.99916 4.1186C4.99704 4.11662 4.99491 4.11465 4.99278 4.11267C4.99066 4.1107 4.98853 4.10873 4.98641 4.10675C4.98428 4.10478 4.98216 4.10281 4.98004 4.10084C4.97791 4.09887 4.97579 4.0969 4.97367 4.09493C4.97155 4.09296 4.96943 4.09099 4.96731 4.08902C4.96519 4.08705 4.96307 4.08509 4.96096 4.08312C4.95884 4.08116 4.95672 4.07919 4.95461 4.07723C4.95249 4.07526 4.95038 4.0733 4.94827 4.07134C4.94616 4.06938 4.94404 4.06742 4.94193 4.06546C4.93982 4.0635 4.93771 4.06154 4.9356 4.05958C4.93349 4.05762 4.93139 4.05566 4.92928 4.05371C4.92717 4.05175 4.92506 4.04979 4.92296 4.04784C4.92086 4.04588 4.91875 4.04393 4.91665 4.04198C4.91455 4.04003 4.91244 4.03807 4.91034 4.03612C4.90824 4.03417 4.90614 4.03222 4.90404 4.03027C4.90194 4.02832 4.89985 4.02638 4.89775 4.02443C4.89565 4.02248 4.89356 4.02054 4.89146 4.01859C4.88937 4.01665 4.88727 4.0147 4.88518 4.01276C4.88309 4.01082 4.881 4.00887 4.87891 4.00693C4.87682 4.00499 4.87473 4.00305 4.87264 4.00111C4.87055 3.99917 4.86846 3.99723 4.86638 3.9953C4.86429 3.99336 4.8622 3.99142 4.86012 3.98949C4.85804 3.98755 4.85595 3.98562 4.85387 3.98369C4.85179 3.98175 4.84971 3.97982 4.84763 3.97789C4.84555 3.97596 4.84347 3.97403 4.84139 3.9721C4.83932 3.97017 4.83724 3.96824 4.83516 3.96631C4.83309 3.96439 4.83101 3.96246 4.82894 3.96054C4.82687 3.95861 4.8248 3.95669 4.82273 3.95476C4.82065 3.95284 4.81858 3.95092 4.81652 3.949C4.81445 3.94708 4.81238 3.94516 4.81031 3.94324C4.80825 3.94132 4.80618 3.9394 4.80412 3.93749C4.80205 3.93557 4.79999 3.93365 4.79793 3.93174C4.79587 3.92982 4.79381 3.92791 4.79175 3.926C4.78969 3.92409 4.78763 3.92217 4.78557 3.92026C4.78351 3.91835 4.78146 3.91644 4.7794 3.91454C4.77735 3.91263 4.7753 3.91072 4.77324 3.90882C4.77119 3.90691 4.76914 3.90501 4.76709 3.9031C4.76504 3.9012 4.76299 3.8993 4.76094 3.89739C4.75889 3.89549 4.75685 3.89359 4.7548 3.89169C4.75276 3.88979 4.75071 3.8879 4.74867 3.886C4.74663 3.8841 4.74458 3.88221 4.74254 3.88031C4.7405 3.87842 4.73846 3.87652 4.73643 3.87463C4.73439 3.87274 4.73235 3.87085 4.73032 3.86895C4.72828 3.86706 4.72625 3.86518 4.72421 3.86329C4.72218 3.8614 4.72015 3.85951 4.71812 3.85763C4.71609 3.85574 4.71406 3.85386 4.71203 3.85197C4.71 3.85009 4.70797 3.84821 4.70595 3.84633C4.70392 3.84445 4.7019 3.84257 4.69987 3.84069C4.69785 3.83881 4.69583 3.83693 4.69381 3.83505C4.69179 3.83318 4.68977 3.8313 4.68775 3.82943C4.68573 3.82755 4.68371 3.82568 4.6817 3.82381C4.67968 3.82194 4.67767 3.82007 4.67565 3.8182C4.67364 3.81633 4.67163 3.81446 4.66962 3.81259C4.66761 3.81073 4.6656 3.80886 4.66359 3.807C4.66158 3.80513 4.65958 3.80327 4.65757 3.80141C4.65557 3.79954 4.65356 3.79768 4.65156 3.79582C4.64956 3.79396 4.64755 3.79211 4.64555 3.79025C4.64355 3.78839 4.64156 3.78654 4.63956 3.78468C4.63756 3.78283 4.63556 3.78097 4.63357 3.77912C4.63158 3.77727 4.62958 3.77542 4.62759 3.77357C4.6256 3.77172 4.62361 3.76987 4.62162 3.76802C4.61963 3.76617 4.61764 3.76433 4.61565 3.76248C4.61367 3.76064 4.61168 3.75879 4.6097 3.75695C4.60771 3.75511 4.60573 3.75327 4.60375 3.75143C4.60177 3.74959 4.59979 3.74775 4.59781 3.74591C4.59583 3.74408 4.59385 3.74224 4.59188 3.74041C4.5899 3.73857 4.58793 3.73674 4.58596 3.73491C4.58398 3.73307 4.58201 3.73124 4.58004 3.72941C4.57807 3.72758 4.5761 3.72576 4.57413 3.72393C4.57217 3.7221 4.5702 3.72028 4.56824 3.71845C4.56627 3.71663 4.56431 3.71481 4.56235 3.71298C4.56039 3.71116 4.55842 3.70934 4.55647 3.70752C4.55451 3.7057 4.55255 3.70389 4.55059 3.70207C4.54864 3.70025 4.54668 3.69844 4.54473 3.69663C4.54278 3.69481 4.54082 3.693 4.53887 3.69119C4.53692 3.68938 4.53498 3.68757 4.53303 3.68576C4.53108 3.68395 4.52913 3.68214 4.52719 3.68034C4.52525 3.67853 4.5233 3.67673 4.52136 3.67493C4.51942 3.67312 4.51748 3.67132 4.51554 3.66952C4.5136 3.66772 4.51166 3.66592 4.50973 3.66412C4.50779 3.66233 4.50586 3.66053 4.50393 3.65874C4.50199 3.65694 4.50006 3.65515 4.49813 3.65336C4.4962 3.65156 4.49427 3.64977 4.49235 3.64798C4.49042 3.6462 4.4885 3.64441 4.48657 3.64262C4.48465 3.64084 4.48273 3.63905 4.48081 3.63727C4.47888 3.63548 4.47697 3.6337 4.47505 3.63192C4.47313 3.63014 4.47121 3.62836 4.4693 3.62658C4.46738 3.6248 4.46547 3.62303 4.46356 3.62125C4.46165 3.61948 4.45974 3.6177 4.45783 3.61593C4.45592 3.61416 4.45401 3.61239 4.45211 3.61062C4.4502 3.60885 4.4483 3.60708 4.4464 3.60532C4.44449 3.60355 4.44259 3.60178 4.44069 3.60002C4.4388 3.59826 4.4369 3.5965 4.435 3.59473C4.43311 3.59297 4.43121 3.59121 4.42932 3.58946C4.42742 3.5877 4.42553 3.58594 4.42364 3.58419C4.42175 3.58243 4.41987 3.58068 4.41798 3.57893C4.41609 3.57718 4.41421 3.57543 4.41232 3.57368C4.41044 3.57193 4.40856 3.57018 4.40668 3.56843C4.4048 3.56669 4.40292 3.56494 4.40104 3.5632C4.39917 3.56146 4.39729 3.55972 4.39542 3.55798C4.39354 3.55624 4.39167 3.5545 4.3898 3.55276C4.38793 3.55102 4.38606 3.54929 4.38419 3.54756C4.38233 3.54582 4.38046 3.54409 4.3786 3.54236C4.37673 3.54063 4.37487 3.5389 4.37301 3.53717C4.37115 3.53544 4.36929 3.53372 4.36743 3.53199C4.36557 3.53027 4.36372 3.52854 4.36186 3.52682C4.36001 3.5251 4.35816 3.52338 4.35631 3.52166C4.35446 3.51994 4.35261 3.51823 4.35076 3.51651C4.34891 3.51479 4.34707 3.51308 4.34522 3.51137C4.34338 3.50966 4.34154 3.50794 4.33969 3.50624C4.33785 3.50453 4.33601 3.50282 4.33418 3.50111C4.33234 3.49941 4.3305 3.4977 4.32867 3.496C4.32684 3.4943 4.325 3.49259 4.32317 3.49089C4.32134 3.48919 4.31951 3.4875 4.31769 3.4858C4.31586 3.4841 4.31403 3.48241 4.31221 3.48071C4.31039 3.47902 4.30856 3.47733 4.30674 3.47564C4.30492 3.47395 4.3031 3.47226 4.30129 3.47057C4.29947 3.46888 4.29766 3.4672 4.29584 3.46552C4.29403 3.46383 4.29222 3.46215 4.29041 3.46047C4.2886 3.45879 4.28679 3.45711 4.28498 3.45543C4.28318 3.45375 4.28137 3.45208 4.27957 3.4504L3.25889 4.54959ZM4.32033 3.49129C3.77961 2.9055 3.35766 2.4484 2.93572 1.99129C2.51377 1.53418 2.09183 1.07708 1.5511 0.49129L0.448897 1.50871C0.989623 2.0945 1.41157 2.5516 1.83351 3.00871C2.25546 3.46582 2.6774 3.92292 3.21813 4.50871L4.32033 3.49129Z" fill="#434C63"/>
</svg>
