<svg width="24" height="24" viewBox="0 0 24 24" fill="none" xmlns="http://www.w3.org/2000/svg">
<path d="M19.9786 7.79888L19.5138 8.38754L19.9786 7.79888ZM20.75 10.9384V17.5H22.25V10.9384H20.75ZM3.25 17.5V10.9384H1.75V17.5H3.25ZM4.48616 8.38754L9.98616 4.04543L9.05669 2.86811L3.55669 7.21021L4.48616 8.38754ZM14.0138 4.04543L19.5138 8.38754L20.4433 7.21022L14.9433 2.86811L14.0138 4.04543ZM8.25 17.5V20.5H9.75V17.5H8.25ZM15.75 20.5V17.5H14.25V20.5H15.75ZM13 14.75H11V16.25H13V14.75ZM8 20.75H6.5V22.25H8V20.75ZM17.5 20.75H16V22.25H17.5V20.75ZM15.75 17.5C15.75 15.9812 14.5188 14.75 13 14.75V16.25C13.6904 16.25 14.25 16.8096 14.25 17.5H15.75ZM8.25 20.5C8.25 20.6381 8.13807 20.75 8 20.75V22.25C8.9665 22.25 9.75 21.4665 9.75 20.5H8.25ZM14.25 20.5C14.25 21.4665 15.0335 22.25 16 22.25V20.75C15.8619 20.75 15.75 20.6381 15.75 20.5H14.25ZM9.75 17.5C9.75 16.8096 10.3096 16.25 11 16.25V14.75C9.48122 14.75 8.25 15.9812 8.25 17.5H9.75ZM9.98616 4.04543C11.1669 3.11326 12.8331 3.11326 14.0138 4.04543L14.9433 2.86811C13.2176 1.5057 10.7824 1.5057 9.05669 2.86811L9.98616 4.04543ZM1.75 17.5C1.75 20.1234 3.87665 22.25 6.5 22.25V20.75C4.70507 20.75 3.25 19.2949 3.25 17.5H1.75ZM20.75 17.5C20.75 19.2949 19.2949 20.75 17.5 20.75V22.25C20.1234 22.25 22.25 20.1234 22.25 17.5H20.75ZM22.25 10.9384C22.25 9.48469 21.5843 8.11101 20.4433 7.21022L19.5138 8.38754C20.2945 9.00387 20.75 9.94376 20.75 10.9384H22.25ZM3.25 10.9384C3.25 9.94376 3.70547 9.00387 4.48616 8.38754L3.55669 7.21021C2.41569 8.11101 1.75 9.48469 1.75 10.9384H3.25Z" fill="#434C63"/>
</svg>
